<svg width="512" height="512" viewBox="0 0 512 512" xmlns="http://www.w3.org/2000/svg">
  <defs>
    <linearGradient id="red" x1="0" y1="0" x2="1" y2="1"><stop offset="0" stop-color="#ff4754"/><stop offset="1" stop-color="#cf1f2c"/></linearGradient>
    <linearGradient id="gold" x1="0" y1="0" x2="1" y2="1"><stop offset="0" stop-color="#ffe08a"/><stop offset="1" stop-color="#e0a93a"/></linearGradient>
    <linearGradient id="sheen" x1="0" y1="0" x2="0" y2="1"><stop offset="0" stop-color="rgba(255,255,255,.22)"/><stop offset="55%" stop-color="rgba(255,255,255,0)"/></linearGradient>
    <filter id="ds" x="-20%" y="-20%" width="140%" height="140%"><feDropShadow dx="0" dy="8" stdDeviation="12" flood-color="#000" flood-opacity="0.45"/></filter>
  </defs>

  <rect x="40" y="40" width="432" height="432" rx="112" fill="url(#red)" filter="url(#ds)"/>
  <rect x="40" y="40" width="432" height="432" rx="112" fill="url(#sheen)"/>

  <!-- R monogram in gold -->
  <path d="M168 132
           h104
           c46 0 78 30 78 74
           c0 32 -18 56 -46 67
           l58 107
           h-66
           l-50 -96
           h-30
           v96
           h-48 Z
           M216 178 v92 h52 c24 0 38 -16 38 -46 c0 -30 -14 -46 -38 -46 Z"
        fill="url(#gold)" fill-rule="evenodd"/>
</svg>
